<svg id="visual" viewBox="0 0 900 450" width="900" height="450" xmlns="http://www.w3.org/2000/svg" xmlns:xlink="http://www.w3.org/1999/xlink" version="1.1"><rect x="0" y="0" width="900" height="450" fill="#6600FF"></rect><defs><linearGradient id="grad1_0" x1="50%" y1="100%" x2="100%" y2="0%"><stop offset="10%" stop-color="#ffffff" stop-opacity="1"></stop><stop offset="90%" stop-color="#ffffff" stop-opacity="1"></stop></linearGradient></defs><defs><linearGradient id="grad1_1" x1="50%" y1="100%" x2="100%" y2="0%"><stop offset="10%" stop-color="#ffffff" stop-opacity="1"></stop><stop offset="90%" stop-color="#dab5ff" stop-opacity="1"></stop></linearGradient></defs><defs><linearGradient id="grad1_2" x1="50%" y1="100%" x2="100%" y2="0%"><stop offset="10%" stop-color="#aa6cff" stop-opacity="1"></stop><stop offset="90%" stop-color="#dab5ff" stop-opacity="1"></stop></linearGradient></defs><defs><linearGradient id="grad1_3" x1="50%" y1="100%" x2="100%" y2="0%"><stop offset="10%" stop-color="#aa6cff" stop-opacity="1"></stop><stop offset="90%" stop-color="#6600ff" stop-opacity="1"></stop></linearGradient></defs><defs><linearGradient id="grad2_0" x1="0%" y1="100%" x2="50%" y2="0%"><stop offset="10%" stop-color="#ffffff" stop-opacity="1"></stop><stop offset="90%" stop-color="#ffffff" stop-opacity="1"></stop></linearGradient></defs><defs><linearGradient id="grad2_1" x1="0%" y1="100%" x2="50%" y2="0%"><stop offset="10%" stop-color="#dab5ff" stop-opacity="1"></stop><stop offset="90%" stop-color="#ffffff" stop-opacity="1"></stop></linearGradient></defs><defs><linearGradient id="grad2_2" x1="0%" y1="100%" x2="50%" y2="0%"><stop offset="10%" stop-color="#dab5ff" stop-opacity="1"></stop><stop offset="90%" stop-color="#aa6cff" stop-opacity="1"></stop></linearGradient></defs><defs><linearGradient id="grad2_3" x1="0%" y1="100%" x2="50%" y2="0%"><stop offset="10%" stop-color="#6600ff" stop-opacity="1"></stop><stop offset="90%" stop-color="#aa6cff" stop-opacity="1"></stop></linearGradient></defs><g transform="translate(900, 450)"><path d="M-292.5 0C-290.3 -17.1 -288 -34.2 -282.6 -49.8C-277.2 -65.4 -268.7 -79.5 -265 -96.4C-261.3 -113.4 -262.6 -133.2 -253.3 -146.3C-244.1 -159.3 -224.3 -165.4 -213 -178.7C-201.6 -192 -198.6 -212.3 -187.1 -222.9C-175.5 -233.6 -155.4 -234.5 -139.5 -241.6C-123.6 -248.7 -112.1 -262 -97.5 -267.8C-82.9 -273.6 -65.2 -271.9 -48.4 -274.8C-31.7 -277.6 -15.8 -285.1 0 -292.5L0 0Z" fill="#8c44ff"></path><path d="M-219.4 0C-217.7 -12.8 -216 -25.7 -212 -37.4C-207.9 -49.1 -201.5 -59.6 -198.7 -72.3C-196 -85.1 -196.9 -99.9 -190 -109.7C-183 -119.4 -168.2 -124.1 -159.7 -134C-151.2 -144 -149 -159.2 -140.3 -167.2C-131.6 -175.2 -116.5 -175.9 -104.6 -181.2C-92.7 -186.6 -84.1 -196.5 -73.1 -200.9C-62.1 -205.2 -48.9 -203.9 -36.3 -206.1C-23.8 -208.2 -11.9 -213.8 0 -219.4L0 0Z" fill="#c391ff"></path><path d="M-146.2 0C-145.1 -8.6 -144 -17.1 -141.3 -24.9C-138.6 -32.7 -134.3 -39.7 -132.5 -48.2C-130.7 -56.7 -131.3 -66.6 -126.7 -73.1C-122 -79.6 -112.2 -82.7 -106.5 -89.3C-100.8 -96 -99.3 -106.1 -93.5 -111.5C-87.7 -116.8 -77.7 -117.3 -69.8 -120.8C-61.8 -124.4 -56 -131 -48.7 -133.9C-41.4 -136.8 -32.6 -135.9 -24.2 -137.4C-15.8 -138.8 -7.9 -142.5 0 -146.2L0 0Z" fill="#eddaff"></path><path d="M-73.1 0C-72.6 -4.3 -72 -8.6 -70.7 -12.5C-69.3 -16.4 -67.2 -19.9 -66.2 -24.1C-65.3 -28.4 -65.6 -33.3 -63.3 -36.6C-61 -39.8 -56.1 -41.4 -53.2 -44.7C-50.4 -48 -49.7 -53.1 -46.8 -55.7C-43.9 -58.4 -38.8 -58.6 -34.9 -60.4C-30.9 -62.2 -28 -65.5 -24.4 -67C-20.7 -68.4 -16.3 -68 -12.1 -68.7C-7.9 -69.4 -4 -71.3 0 -73.1L0 0Z" fill="#ffffff"></path></g><g transform="translate(0, 0)"><path d="M292.5 0C287.4 16.5 282.4 32.9 278.7 49.1C275 65.4 272.7 81.3 269.7 98.2C266.7 115 262.9 132.6 253.3 146.2C243.8 159.9 228.4 169.5 216.8 181.9C205.2 194.3 197.2 209.6 185.8 221.4C174.3 233.2 159.3 241.6 144.5 250.3C129.7 259 115.3 267.9 99.5 273.5C83.8 279 66.8 281 50 283.6C33.2 286.2 16.6 289.4 0 292.5L0 0Z" fill="#8c44ff"></path><path d="M219.4 0C215.6 12.3 211.8 24.7 209 36.9C206.3 49 204.5 61 202.3 73.6C200 86.2 197.2 99.5 190 109.7C182.8 119.9 171.3 127.1 162.6 136.4C153.9 145.7 147.9 157.2 139.3 166C130.7 174.9 119.4 181.2 108.4 187.7C97.3 194.2 86.4 201 74.6 205.1C62.8 209.2 50.1 210.8 37.5 212.7C24.9 214.7 12.5 217 0 219.4L0 0Z" fill="#c391ff"></path><path d="M146.3 0C143.7 8.2 141.2 16.5 139.4 24.6C137.5 32.7 136.4 40.7 134.8 49.1C133.3 57.5 131.4 66.3 126.7 73.1C121.9 79.9 114.2 84.7 108.4 91C102.6 97.2 98.6 104.8 92.9 110.7C87.1 116.6 79.6 120.8 72.3 125.1C64.9 129.5 57.6 134 49.8 136.7C41.9 139.5 33.4 140.5 25 141.8C16.6 143.1 8.3 144.7 0 146.3L0 0Z" fill="#eddaff"></path><path d="M73.1 0C71.9 4.1 70.6 8.2 69.7 12.3C68.8 16.3 68.2 20.3 67.4 24.5C66.7 28.7 65.7 33.2 63.3 36.6C60.9 40 57.1 42.4 54.2 45.5C51.3 48.6 49.3 52.4 46.4 55.3C43.6 58.3 39.8 60.4 36.1 62.6C32.4 64.7 28.8 67 24.9 68.4C20.9 69.7 16.7 70.3 12.5 70.9C8.3 71.6 4.2 72.3 0 73.1L0 0Z" fill="#ffffff"></path></g></svg>